<?xml version="1.0" standalone="no"?>
<!DOCTYPE svg PUBLIC "-//W3C//DTD SVG 20010904//EN"
 "http://www.w3.org/TR/2001/REC-SVG-20010904/DTD/svg10.dtd">
<svg version="1.0" xmlns="http://www.w3.org/2000/svg"
 width="4110.000000pt" height="8900.000000pt" viewBox="0 0 4110.000000 8900.000000"
 preserveAspectRatio="xMidYMid meet">

<g transform="translate(0.000000,8900.000000) scale(0.100000,-0.100000)"
fill="#000000" stroke="none">
<path d="M20400 88974 c-481 -87 -951 -176 -1315 -249 -4383 -874 -8127 -2180
-11160 -3890 -2145 -1210 -4014 -2689 -5278 -4180 -1338 -1576 -2103 -3257
-2432 -5345 -231 -1462 -265 -3162 -115 -5710 47 -795 90 -1386 255 -3535 313
-4068 428 -6000 510 -8515 43 -1332 55 -2065 62 -3595 11 -2758 -51 -5126
-207 -7925 -84 -1499 -155 -2522 -360 -5180 -228 -2963 -279 -3737 -330 -5065
-28 -707 -23 -1922 10 -2540 155 -2866 878 -4913 2406 -6812 486 -604 1106
-1240 1791 -1840 3534 -3094 8757 -5325 15393 -6578 217 -41 405 -77 417 -80
l23 -5 2 -8773 3 -8772 22 -58 c102 -270 400 -391 661 -270 30 14 83 52 118
85 76 72 128 169 144 268 7 44 10 2946 10 8792 l0 8728 23 5 c12 3 144 28 292
55 5741 1069 10487 2893 13934 5355 931 665 1681 1294 2407 2020 653 653 1116
1210 1564 1882 1125 1685 1676 3511 1810 5998 33 620 38 1826 10 2540 -51
1322 -99 2062 -330 5065 -239 3104 -327 4433 -415 6230 -118 2432 -162 4431
-152 6880 7 1525 19 2260 62 3590 82 2517 197 4444 510 8515 287 3727 345
4776 345 6220 0 1358 -86 2435 -275 3430 -532 2807 -1939 4959 -4660 7127
-1522 1212 -3348 2295 -5432 3219 -2641 1172 -5729 2099 -9188 2758 -386 74
-983 182 -994 180 -3 0 -67 -12 -141 -25z m465 -1004 c3428 -619 6534 -1517
9175 -2655 2802 -1207 5146 -2715 6894 -4435 1477 -1454 2361 -2942 2805
-4725 216 -869 338 -1825 381 -2990 13 -346 13 -1426 0 -1840 -38 -1240 -95
-2143 -335 -5260 -171 -2227 -240 -3191 -310 -4325 -131 -2136 -201 -3874
-247 -6120 -16 -783 -16 -3599 0 -4390 71 -3481 192 -5744 572 -10648 204
-2633 257 -3451 312 -4772 18 -417 17 -2031 0 -2360 -67 -1268 -203 -2181
-461 -3086 -541 -1896 -1609 -3470 -3441 -5069 -3230 -2821 -7989 -4914
-14000 -6159 -331 -68 -1051 -209 -1132 -221 l-48 -7 0 2769 0 2769 93 59
c201 128 667 443 888 601 1764 1259 3338 2745 4667 4408 2411 3014 3883 6480
4346 10226 51 413 93 892 127 1450 17 285 23 1418 10 1766 -44 1126 -163 2166
-376 3279 -57 301 -189 893 -214 967 -52 150 -186 271 -341 307 -58 13 -162
13 -220 0 -167 -38 -309 -181 -355 -354 -21 -82 -19 -143 11 -270 297 -1290
446 -2339 526 -3695 18 -293 18 -1658 0 -1950 -51 -867 -127 -1557 -252 -2287
-554 -3229 -1908 -6212 -4019 -8851 -530 -663 -980 -1164 -1625 -1807 -700
-699 -1333 -1259 -2083 -1843 -478 -372 -1338 -984 -1321 -941 3 8 35 84 72
170 l66 156 0 12065 0 12065 108 68 c300 192 761 508 1073 735 2204 1610 4110
3583 5556 5750 1301 1950 2237 4050 2797 6275 326 1296 496 2431 587 3915 17
277 23 1422 10 1766 -52 1332 -211 2565 -496 3855 -41 184 -83 360 -94 391
-50 144 -165 254 -314 300 -89 27 -224 22 -309 -11 -169 -65 -292 -233 -305
-416 -4 -61 5 -112 70 -405 263 -1173 403 -2189 479 -3480 18 -293 18 -1658 0
-1950 -31 -531 -71 -989 -123 -1403 -370 -2985 -1411 -5773 -3102 -8307 -1425
-2134 -3324 -4080 -5502 -5635 -274 -196 -579 -400 -573 -384 3 8 35 84 72
170 l66 156 0 17000 c0 11522 -3 17018 -10 17054 -23 122 -123 265 -228 326
-109 64 -261 81 -386 43 -133 -41 -254 -155 -308 -287 l-23 -58 -3 -10743 -2
-10742 76 -151 c41 -83 73 -153 71 -155 -11 -12 -590 252 -967 441 -1390 696
-2649 1551 -3800 2584 -243 219 -877 850 -1080 1076 -1201 1337 -2076 2741
-2705 4340 -804 2043 -1118 4309 -910 6565 103 1105 327 2226 650 3240 55 172
65 256 41 348 -58 228 -239 372 -466 372 -175 0 -325 -87 -417 -240 -41 -69
-214 -644 -328 -1095 -448 -1767 -600 -3631 -439 -5390 215 -2361 961 -4597
2192 -6575 1400 -2249 3439 -4173 5943 -5608 644 -369 1416 -748 1993 -979
l146 -58 0 -12118 0 -12117 80 -159 79 -159 -170 74 c-299 130 -516 232 -859
405 -1385 697 -2652 1564 -3791 2594 -215 195 -858 838 -1040 1040 -930 1035
-1633 2064 -2223 3255 -1208 2437 -1673 5178 -1356 7990 105 925 301 1875 567
2740 113 368 118 397 88 515 -69 263 -329 418 -590 350 -114 -30 -228 -116
-287 -216 -59 -100 -266 -810 -393 -1346 -393 -1661 -525 -3367 -390 -5028
145 -1773 604 -3515 1351 -5122 1199 -2581 3170 -4822 5739 -6528 974 -646
1928 -1161 2955 -1594 l235 -99 3 -9117 2 -9117 -47 7 c-27 4 -221 40 -433 81
-4739 919 -8690 2326 -11808 4208 -1822 1100 -3386 2388 -4467 3681 -974 1165
-1607 2402 -1958 3826 -201 814 -310 1623 -369 2739 -17 329 -18 1943 0 2360
55 1336 106 2111 322 4900 191 2472 274 3665 355 5070 221 3863 277 7494 175
11200 -75 2704 -198 4831 -525 9085 -292 3797 -345 4749 -345 6205 0 1244 57
2074 205 2979 429 2618 1628 4569 4051 6587 2519 2099 5966 3801 10119 4999
1204 347 2361 631 3690 904 607 124 1499 291 1530 285 11 -2 146 -27 300 -54z"/>
</g>
</svg>
